# xmcd CD database file
#
# Track frame offsets:
#	150
#	22069
#	43934
#	64315
#	81217
#	104882
#	127378
#	149024
#	170390
#	192773
#	209048
#	236562
#	253313
#
# Disc length: 3735 seconds
#
# Revision: 19
# Processed by: cddbd v1.5.1PL2 Copyright (c) Steve Scherf et al.
# Submitted via: CDex 1.51
#
DISCID=da0e950d
DTITLE=大黒摩季 - BEST OF BEST〜All Singles Collection〜 Disc 2
DYEAR=1999
DGENRE=J ポップ
TTITLE0=いちばん近くにいてね
TTITLE1=愛してます
TTITLE2=あぁ
TTITLE3=熱くなれ
TTITLE4=アンバランス
TTITLE5=ゲンキダシテ
TTITLE6=空
TTITLE7=ネッ！〜女、情熱〜
TTITLE8=太陽の国へ行こうよ すぐに 〜空飛ぶ夢に乗って〜
TTITLE9=夢なら醒めてよ
TTITLE10=BRAND-NEW DAY
TTITLE11=チョット (Live Version)
TTITLE12=ら・ら・ら (Live Version)
EXTD=YEAR: 1999
EXTT0=
EXTT1=
EXTT2=
EXTT3=
EXTT4=
EXTT5=
EXTT6=
EXTT7=
EXTT8=
EXTT9=
EXTT10=
EXTT11=
EXTT12=
PLAYORDER=
